HIERARCHY
ROOT Hips
{
	OFFSET 0.000000 0.000000 0.000000
	CHANNELS 6 Xposition Yposition Zposition Xrotation Yrotation Zrotation
	JOINT LeftUpLeg_virtual
	{
		OFFSET 0.000000 0.000000 0.000000
		CHANNELS 3 Xrotation Yrotation Zrotation
		JOINT LeftUpLeg
		{
			OFFSET 10.205400 -3.823500 0.155100
			CHANNELS 3 Xrotation Yrotation Zrotation
			JOINT LeftLeg
			{
				OFFSET 0.708757 -12.982077 0.567790
				CHANNELS 3 Xrotation Yrotation Zrotation
				JOINT LeftFoot
				{
					OFFSET -0.708756 -10.717838 -2.184338
					CHANNELS 3 Xrotation Yrotation Zrotation
					JOINT LeftToeBase
					{
						OFFSET 0.108149 -7.191104 7.560241
						CHANNELS 3 Xrotation Yrotation Zrotation
						JOINT LeftToe_End
						{
							OFFSET 0.070230 0.081724 4.490308
							CHANNELS 3 Xrotation Yrotation Zrotation
							End Site
							{
								OFFSET 0 0 0
							}
						}
					}
				}
			}
		}
	}
	JOINT RightUpLeg_virtual
	{
		OFFSET 0.000000 0.000000 0.000000
		CHANNELS 3 Xrotation Yrotation Zrotation
		JOINT RightUpLeg
		{
			OFFSET -10.205400 -3.823500 0.005500
			CHANNELS 3 Xrotation Yrotation Zrotation
			JOINT RightLeg
			{
				OFFSET -0.708756 -12.982134 0.610632
				CHANNELS 3 Xrotation Yrotation Zrotation
				JOINT RightFoot
				{
					OFFSET 0.708754 -10.717769 -1.945823
					CHANNELS 3 Xrotation Yrotation Zrotation
					JOINT RightToeBase
					{
						OFFSET -0.108140 -7.191069 7.372968
						CHANNELS 3 Xrotation Yrotation Zrotation
						JOINT RightToe_End
						{
							OFFSET -0.070227 0.081735 4.479403
							CHANNELS 3 Xrotation Yrotation Zrotation
							End Site
							{
								OFFSET 0 0 0
							}
						}
					}
				}
			}
		}
	}
	JOINT Spine_virtual
	{
		OFFSET 0.000000 0.000000 0.000000
		CHANNELS 3 Xrotation Yrotation Zrotation
		JOINT Spine
		{
			OFFSET 0.000000 6.876099 0.125700
			CHANNELS 3 Xrotation Yrotation Zrotation
			JOINT Spine1
			{
				OFFSET 0.000000 5.730043 0.104720
				CHANNELS 3 Xrotation Yrotation Zrotation
				JOINT Spine1_split
				{
					OFFSET 0.000000 5.730043 0.104720
					CHANNELS 3 Xrotation Yrotation Zrotation
					JOINT Spine2
					{
						OFFSET 0.000000 5.730043 0.104720
						CHANNELS 3 Xrotation Yrotation Zrotation
						JOINT Neck_virtual
						{
							OFFSET 0.000000 0.000000 0.000000
							CHANNELS 3 Xrotation Yrotation Zrotation
							JOINT Neck
							{
								OFFSET 0.000000 10.314075 0.188496
								CHANNELS 3 Xrotation Yrotation Zrotation
								JOINT Head
								{
									OFFSET 0.000000 7.643700 -2.377400
									CHANNELS 3 Xrotation Yrotation Zrotation
									JOINT HeadTop_End
									{
										OFFSET 0.000000 43.788605 -13.619600
										CHANNELS 3 Xrotation Yrotation Zrotation
										End Site
										{
											OFFSET 0 0 0
										}
									}
								}
							}
						}
						JOINT LeftShoulder_virtual
						{
							OFFSET 0.000000 0.000000 0.000000
							CHANNELS 3 Xrotation Yrotation Zrotation
							JOINT LeftShoulder
							{
								OFFSET 2.196100 4.412489 0.087492
								CHANNELS 3 Xrotation Yrotation Zrotation
								JOINT LeftShoulder_split
								{
									OFFSET 2.196100 4.412489 0.087492
									CHANNELS 3 Xrotation Yrotation Zrotation
									JOINT LeftArm
									{
										OFFSET 8.771219 -2.981674 -0.026999
										CHANNELS 3 Xrotation Yrotation Zrotation
										JOINT LeftForeArm
										{
											OFFSET 8.512804 0.000000 -0.000000
											CHANNELS 3 Xrotation Yrotation Zrotation
											JOINT LeftHand
											{
												OFFSET 18.484802 0.000000 -0.000000
												CHANNELS 3 Xrotation Yrotation Zrotation
												End Site
												{
													OFFSET 0 0 0
												}
											}
										}
									}
								}
							}
						}
						JOINT RightShoulder_virtual
						{
							OFFSET 0.000000 0.000000 0.000000
							CHANNELS 3 Xrotation Yrotation Zrotation
							JOINT RightShoulder
							{
								OFFSET -2.196100 4.412496 0.070690
								CHANNELS 3 Xrotation Yrotation Zrotation
								JOINT RightShoulder_split
								{
									OFFSET -2.196100 4.412496 0.070690
									CHANNELS 3 Xrotation Yrotation Zrotation
									JOINT RightArm
									{
										OFFSET -8.771282 -2.981682 -0.094208
										CHANNELS 3 Xrotation Yrotation Zrotation
										JOINT RightForeArm
										{
											OFFSET -8.494598 0.000000 0.000000
											CHANNELS 3 Xrotation Yrotation Zrotation
											JOINT RightHand
											{
												OFFSET -18.483803 0.000000 0.000001
												CHANNELS 3 Xrotation Yrotation Zrotation
												End Site
												{
													OFFSET 0 0 0
												}
											}
										}
									}
								}
							}
						}
					}
				}
			}
		}
	}
}
MOTION
Frames: 10
Frame Time: 0.03333333
-0.450990 33.729492 1.678421 0.000000 0.000000 0.000000 -2.940755 -5.737274 8.826859 -27.329996 2.123535 3.658497 25.274731 9.438714 6.361296 29.325998 6.295789 -6.471603 -6.050408 1.212027 1.467321 0.000000 0.000000 0.000000 -2.172206 -4.875113 8.249326 9.483141 -8.500931 12.244998 7.124912 -5.490051 0.486935 -15.321467 -7.294047 -24.612098 -5.160294 4.079979 -2.883320 0.000000 0.000000 0.000000 -3.035824 -9.894537 8.005431 -0.270850 0.802777 -3.073199 2.448565 3.125406 -4.588816 0.723259 -2.970968 -0.150047 0.000000 0.000000 0.000000 0.605749 3.009095 -4.463877 2.840365 -0.980846 0.999464 10.064846 10.624614 8.349511 0.000000 0.000000 0.000000 1.284848 2.848423 -4.856810 -0.178057 3.567477 -0.845931 -4.511302 0.512829 -1.415044 -15.874300 6.226884 -21.354221 0.216727 -18.570589 -1.109998 0.000000 0.000000 0.000000 1.028934 3.099851 -4.445131 1.294029 -3.025413 5.727526 -3.352589 0.317301 -1.257635 -48.884501 33.113758 15.256293 -0.356049 12.541762 0.371814 0.000000 0.000000 0.000000 
-0.750016 33.489021 2.039129 0.000000 0.000000 0.000000 -3.959774 -6.723213 8.929934 -29.336943 4.016071 0.707067 24.320815 9.965078 6.178815 30.325029 6.732379 -6.567961 -5.392369 1.136406 1.545273 0.000000 0.000000 0.000000 -2.587627 -6.867794 8.527151 9.051855 -9.743481 11.748631 8.673659 -5.749488 1.184504 -12.807216 -8.138490 -23.565693 -10.130741 3.660647 -1.765199 0.000000 0.000000 0.000000 -4.045943 -10.521376 8.232958 0.038480 0.877933 -3.483977 2.565415 3.509018 -4.522967 0.604209 -2.317265 -0.091780 0.000000 0.000000 0.000000 0.710110 3.412933 -4.441323 2.929565 -1.097177 1.255062 9.671192 10.515386 8.284245 0.000000 0.000000 0.000000 1.402406 3.265185 -4.730192 -0.179752 3.690882 0.474499 -5.042256 0.427324 -0.616223 -18.299711 6.866440 -19.792500 -0.242347 -18.255096 -1.056898 0.000000 0.000000 0.000000 1.189889 3.456292 -4.419625 1.153789 -3.225152 5.359519 -3.360141 0.963256 -1.599283 -49.692707 35.365616 15.315489 -0.088527 14.243221 -0.099018 0.000000 0.000000 0.000000 
-1.032055 33.237019 2.587887 0.000000 0.000000 0.000000 -4.722637 -10.448976 8.938919 -30.152693 6.581082 -4.226118 24.271574 10.994087 5.816970 32.583219 8.176137 -8.040288 -4.042771 1.068926 1.676173 0.000000 0.000000 0.000000 -3.234380 -10.945590 8.883793 8.766114 -9.871080 10.833150 12.388310 -5.638528 1.987873 -11.123737 -8.787404 -21.033460 -13.251555 2.412507 -0.091282 0.000000 0.000000 0.000000 -5.261113 -12.879321 8.371863 0.179203 1.479685 -3.989637 2.711798 4.357430 -4.364756 0.547415 -1.643255 0.115294 0.000000 0.000000 0.000000 0.865114 4.300748 -4.303800 2.807965 -1.196137 1.281416 9.566887 10.227143 7.955500 0.000000 0.000000 0.000000 1.491899 4.219573 -4.418284 -0.295200 3.695801 2.327185 -5.093754 0.702254 -0.501635 -20.013557 8.069738 -16.180973 -0.493998 -18.084379 -0.847404 0.000000 0.000000 0.000000 1.399675 4.269086 -4.288804 1.133775 -3.647517 4.720577 -2.963337 0.943607 -1.356094 -50.514669 39.570059 14.696028 0.225023 16.174907 -0.562945 0.000000 0.000000 0.000000 
-1.389949 33.063286 3.281887 0.000000 0.000000 0.000000 -5.164965 -15.702543 8.774303 -29.712399 9.055951 -10.082000 25.074809 12.531887 5.429978 35.234958 10.653084 -10.318625 -1.852181 1.099376 1.280017 0.000000 0.000000 0.000000 -3.704331 -15.873658 9.011911 9.278175 -8.891808 10.448078 15.424490 -5.517159 2.034160 -12.976523 -8.316696 -18.972368 -12.416072 1.071785 1.476516 0.000000 0.000000 0.000000 -6.308583 -16.134939 8.156982 0.231766 2.412842 -4.418183 2.858216 5.456656 -4.108365 0.612388 -1.379119 0.448697 0.000000 0.000000 0.000000 1.004016 5.444683 -4.020108 2.489594 -1.193330 1.139775 9.729733 9.947148 7.371074 0.000000 0.000000 0.000000 1.537566 5.455492 -3.975436 -0.470879 3.619450 4.324854 -4.547558 1.225648 -0.965381 -20.810447 9.778575 -11.403309 -0.640751 -17.243933 -0.562687 0.000000 0.000000 0.000000 1.622209 5.373916 -4.043376 1.193635 -4.201399 3.904297 -2.487217 0.391841 -0.667209 -50.893471 44.680041 13.198629 0.513725 17.639392 -0.972534 0.000000 0.000000 0.000000 
-1.800842 32.997742 3.892805 0.000000 0.000000 0.000000 -5.263880 -21.456008 8.336059 -28.788800 11.120262 -15.825166 26.053709 14.638246 5.127147 37.179657 14.199413 -11.883783 0.246503 1.115026 0.288410 0.000000 0.000000 0.000000 -3.942199 -20.676443 8.710563 10.692788 -7.378424 11.039113 17.148810 -5.785258 1.334320 -17.728458 -6.539857 -18.419159 -8.938161 0.430920 2.513778 0.000000 0.000000 0.000000 -6.654161 -19.913369 7.598440 0.076230 3.422447 -4.577476 2.921410 6.574123 -3.770821 0.692805 -1.061364 0.557704 0.000000 0.000000 0.000000 1.116493 6.595962 -3.640369 2.175803 -1.062016 0.951274 10.065669 9.912785 6.598703 0.000000 0.000000 0.000000 1.525592 6.697931 -3.496572 -0.664732 3.576143 6.040124 -3.898632 1.806794 -1.190788 -20.983395 11.732149 -6.314651 -0.801324 -15.707999 -0.270224 0.000000 0.000000 0.000000 1.764305 6.527393 -3.706476 1.312239 -4.737426 3.123634 -2.115665 -0.118664 0.007370 -50.956152 49.648952 11.138036 0.690689 18.260700 -1.271025 0.000000 0.000000 0.000000 
-2.307090 32.968117 4.380251 0.000000 0.000000 0.000000 -5.320782 -26.660791 7.534196 -27.837730 12.309638 -20.442645 27.170925 16.172339 5.012768 37.637167 17.817653 -12.728706 0.178092 1.045548 -0.636204 0.000000 0.000000 0.000000 -4.199650 -24.638014 7.998268 12.149689 -6.297486 12.369877 18.179757 -6.102993 0.280032 -21.092428 -4.219462 -17.485634 -8.341890 0.517147 2.260151 0.000000 0.000000 0.000000 -6.548059 -23.671581 6.696039 -0.326005 4.247480 -4.447239 2.803980 7.526319 -3.432917 1.163152 -0.729758 0.305840 0.000000 0.000000 0.000000 1.157477 7.552785 -3.285648 2.169851 -0.778255 0.810553 10.472354 10.231211 5.770400 0.000000 0.000000 0.000000 1.435876 7.743174 -3.097887 -0.827014 3.597068 7.176999 -3.701013 2.207481 -1.316813 -21.082933 13.693249 -1.509757 -1.122871 -13.895199 -0.064240 0.000000 0.000000 0.000000 1.733257 7.538695 -3.381950 1.453946 -5.211577 2.448649 -1.759027 -0.259346 0.438074 -51.010455 53.781955 9.165715 0.701256 18.241726 -1.414784 0.000000 0.000000 0.000000 
-2.967567 32.934040 4.940305 0.000000 0.000000 0.000000 -5.410869 -30.805881 6.597246 -26.741195 12.628178 -23.672602 28.589645 16.779934 4.982284 35.337777 21.362767 -12.216785 -2.616485 0.958004 -1.162943 0.000000 0.000000 0.000000 -4.278463 -27.505822 7.047525 12.575420 -6.312676 13.757226 20.106158 -5.172777 -0.770395 -20.002679 -1.981840 -13.423312 -15.213550 1.070152 0.129216 0.000000 0.000000 0.000000 -6.179641 -27.351675 5.535882 -0.850666 4.802049 -4.061801 2.490387 8.261031 -3.222227 1.709403 0.094890 0.338254 0.000000 0.000000 0.000000 1.119957 8.235705 -3.095489 2.619800 -0.401855 0.870162 10.806134 10.963698 5.055646 0.000000 0.000000 0.000000 1.214053 8.491046 -2.908173 -0.940241 3.798560 7.626612 -3.625313 2.171272 -1.007830 -21.879169 15.218186 2.528132 -1.655206 -12.314594 0.005532 0.000000 0.000000 0.000000 1.484435 8.289328 -3.205291 1.583788 -5.661909 1.984906 -1.464368 -0.129798 0.504648 -51.759136 56.747302 8.250092 0.572342 17.969796 -1.450139 0.000000 0.000000 0.000000 
-3.726308 32.781395 5.381929 0.000000 0.000000 0.000000 -5.553575 -33.816246 5.745115 -25.189835 12.679642 -25.689928 29.898654 16.916825 4.799274 28.680996 25.397553 -8.557309 -7.132407 0.933540 -1.242587 0.000000 0.000000 0.000000 -4.310074 -29.860023 6.158765 11.770006 -7.843467 14.563001 24.755946 -2.912294 -1.481567 -14.155883 0.132771 -6.200224 -29.893248 2.277033 -3.339817 0.000000 0.000000 0.000000 -5.864282 -30.820675 4.452543 -1.314872 5.053963 -3.636975 2.023545 8.803637 -3.271910 1.737066 0.691626 0.382103 0.000000 0.000000 0.000000 1.046205 8.668337 -3.196883 3.536308 0.038762 1.169466 10.963661 11.981029 4.593155 0.000000 0.000000 0.000000 0.771004 8.957721 -2.996536 -1.031736 4.166926 7.378491 -3.767835 1.644730 -0.295831 -23.323131 15.927258 5.704735 -2.255422 -11.503913 -0.053361 0.000000 0.000000 0.000000 1.000931 8.749620 -3.290261 1.682008 -6.088979 1.848830 -1.202646 0.134656 0.282687 -53.766819 58.290959 9.294663 0.385683 17.785314 -1.409048 0.000000 0.000000 0.000000 
-4.571372 32.486343 5.674290 0.000000 0.000000 0.000000 -5.886535 -35.725660 5.182978 -23.336917 12.576129 -26.592587 30.891945 16.596339 4.379668 17.838632 28.722144 -1.986234 -11.225769 0.958483 -0.908187 0.000000 0.000000 0.000000 -4.602804 -32.168825 5.537593 9.629865 -11.238014 14.138370 32.573882 -0.703687 -2.090674 -5.624078 2.220003 1.883117 -46.090291 4.190653 -6.937377 0.000000 0.000000 0.000000 -5.961443 -33.694962 3.655073 -1.459932 5.045027 -3.525655 1.473763 9.133633 -3.616650 1.526450 0.702502 0.487005 0.000000 0.000000 0.000000 0.922593 8.883766 -3.605039 4.563073 0.442447 1.610632 10.785690 13.144062 4.495930 0.000000 0.000000 0.000000 0.198622 9.182078 -3.383453 -1.102235 4.599300 6.700740 -3.949316 0.575023 0.528420 -24.962837 15.752446 7.947915 -2.767799 -11.310141 -0.233157 0.000000 0.000000 0.000000 0.421510 8.957650 -3.671794 1.731356 -6.417673 2.164768 -1.057931 0.128920 0.031883 -56.365077 58.100171 12.023814 0.242731 17.980842 -1.322245 0.000000 0.000000 0.000000 
-5.465015 32.075451 5.756957 0.000000 0.000000 0.000000 -6.542449 -36.521558 5.009676 -22.328201 12.438519 -26.375588 32.144738 15.756379 3.636364 6.817888 29.977772 4.709520 -12.774440 1.031794 -0.378927 0.000000 0.000000 0.000000 -5.145873 -34.023822 5.269546 6.280065 -16.132545 11.639634 42.271716 0.545144 -2.388302 2.767619 4.019629 8.390849 -56.385513 6.075783 -9.742692 0.000000 0.000000 0.000000 -6.294900 -35.831569 3.338496 -1.197692 4.884553 -3.886700 0.974773 9.258474 -4.163753 1.147916 0.440516 0.602879 0.000000 0.000000 0.000000 0.765537 8.916064 -4.245274 5.229697 0.811213 2.099550 10.225768 14.249970 4.799179 0.000000 0.000000 0.000000 -0.320086 9.195407 -3.998463 -1.133633 5.023231 5.868344 -3.837777 -0.961711 1.340758 -26.482091 14.699160 9.064904 -3.025319 -10.972540 -0.480350 0.000000 0.000000 0.000000 -0.095872 8.951677 -4.269134 1.712540 -6.567816 3.092008 -0.952040 -0.156286 -0.280645 -58.515747 55.748848 15.692172 0.198197 19.020060 -1.250725 0.000000 0.000000 0.000000 
